Coordinates
version=1
nRows=32
nColumns=11
inDegrees=yes

Units are S.I. units (second, meters, Newtons, ...)
Angles are in degrees.

endheader
time	pelvis_tilt	pelvis_tx	pelvis_ty	hip_flexion_r	knee_angle_r	ankle_angle_r	hip_flexion_l	knee_angle_l	ankle_angle_l	lumbar_extension
      0.00000000	      3.16080349	      0.61733147	      1.00955354	    -21.18319468	     -5.97972706	     13.50851728	     20.78913381	     -3.55573173	     -1.58334054	    -19.55080352
      0.01666667	      2.59549201	      0.61789682	      1.00822931	    -20.73588316	     -8.02993197	     13.72348840	     21.66864342	     -5.71066212	     -3.12020652	    -18.89887078
      0.03333333	      2.09425219	      0.61923536	      1.00716754	    -20.36539134	    -10.09209964	     13.63500224	     22.33058778	     -7.75475089	     -4.47449003	    -18.27921689
      0.05000000	      1.70338692	      0.62076947	      1.00647121	    -19.87071354	    -12.61824526	     13.34905001	     22.91302074	     -9.98930766	     -5.39982197	    -17.81828302
      0.06666667	      1.74824675	      0.62315386	      1.00700367	    -19.69507934	    -15.38671924	     12.50985519	     22.96293719	    -12.37069362	     -5.68762980	    -17.68333323
      0.08333333	      1.68833394	      0.62574802	      1.00809152	    -18.94851967	    -18.90972489	     11.25567648	     22.76713786	    -14.21629584	     -5.69035800	    -17.46511824
      0.10000000	      1.81193898	      0.62847384	      1.00977030	    -17.85663256	    -23.26596420	      9.42607711	     22.36637696	    -16.23447584	     -5.06368849	    -17.41596522
      0.11666667	      1.94418160	      0.63095904	      1.01214602	    -16.26275849	    -28.20103414	      6.70853330	     21.61396859	    -17.63687514	     -4.29508187	    -17.33607402
      0.13333333	      1.86157679	      0.63281526	      1.01441585	    -13.81102404	    -33.81124225	      3.23051017	     20.87019120	    -18.58307999	     -3.39610032	    -17.11531033
      0.15000000	      1.77730206	      0.63386309	      1.01707539	    -10.97530705	    -39.47853817	     -0.90214121	     19.82209036	    -18.85616876	     -2.53927370	    -16.90693701
      0.16666667	      1.73447847	      0.63501579	      1.02003414	     -8.13807617	    -44.65884145	     -4.92597682	     18.53211603	    -18.78509016	     -1.59655999	    -16.80929724
      0.18333333	      1.60538115	      0.63419067	      1.02276847	     -4.98120311	    -49.65858853	     -7.71013280	     17.33195971	    -18.45683641	     -0.80989893	    -16.77999938
      0.20000000	      1.43770592	      0.63338142	      1.02531927	     -1.86593592	    -54.19888722	     -8.69111224	     16.18136069	    -18.17568081	      0.05974077	    -16.58047666
      0.21666667	      1.15111663	      0.63189388	      1.02758233	      1.35796868	    -58.33174351	     -7.97790102	     15.16740454	    -17.83472318	      0.83787463	    -16.35381553
      0.23333333	      1.05316611	      0.63132013	      1.03042599	      4.09036059	    -61.59554107	     -6.31035887	     13.67706803	    -17.05406748	      1.47525212	    -16.20537075
      0.25000000	      1.06800632	      0.62935829	      1.03310415	      6.76665588	    -64.33077559	     -4.37364026	     12.10781124	    -16.15273851	      1.96969235	    -16.24847741
      0.26666667	      0.82812971	      0.62769059	      1.03506362	      9.55177474	    -66.27894829	     -2.64977140	     10.77676680	    -15.18736248	      2.46615867	    -15.93806804
      0.28333333	      0.84038337	      0.62568457	      1.03706119	     11.99922905	    -67.48142595	     -1.33813659	      9.19368183	    -14.18502513	      2.90887589	    -16.08223269
      0.30000000	      0.79379116	      0.62354163	      1.03861313	     14.35491504	    -67.88962110	     -0.35040864	      7.64027032	    -13.07683951	      3.26137923	    -16.15177295
      0.31666667	      0.64741972	      0.62031728	      1.03927824	     16.78890548	    -67.67281930	      0.46511115	      6.34774452	    -12.14991702	      3.66394727	    -16.13614361
      0.33333333	      0.50769413	      0.61802672	      1.04001693	     18.83628596	    -66.47903913	      1.17683267	      4.93684088	    -11.11091521	      4.02721966	    -16.15984581
      0.35000000	      0.33825640	      0.61487306	      1.04009381	     20.76930597	    -64.60841716	      1.89342296	      3.69148987	    -10.24642956	      4.46255973	    -16.22374776
      0.36666667	      0.42705304	      0.61186086	      1.04044287	     22.08810882	    -61.85979662	      2.45481834	      2.11057938	     -9.27661120	      4.80586853	    -16.47582893
      0.38333333	      0.46634781	      0.60935401	      1.04048339	     23.08662513	    -58.28219637	      2.86977941	      0.57237738	     -8.35525897	      5.14832123	    -16.71568489
      0.40000000	      0.33892363	      0.60606920	      1.03969280	     24.05766485	    -54.06157657	      3.06322174	     -0.65256190	     -7.62133239	      5.56309883	    -16.72437966
      0.41666667	      0.23155382	      0.60319988	      1.03882703	     24.60573856	    -49.00951919	      2.94808862	     -1.96172139	     -6.79307296	      5.91188992	    -16.95196648
      0.43333333	      0.06040693	      0.60077636	      1.03742244	     24.84141626	    -43.24089498	      2.59085023	     -3.20600158	     -6.00589276	      6.34085082	    -16.92166591
      0.45000000	      0.11616032	      0.59860464	      1.03593003	     24.47430156	    -36.82387249	      1.94839143	     -4.69422393	     -5.25025273	      6.83418993	    -17.08019575
      0.46666667	      0.05408321	      0.59626140	      1.03371440	     23.92644749	    -29.83816356	      1.04014458	     -5.94597669	     -4.71758091	      7.47718146	    -17.13201463
      0.48333333	      0.11817761	      0.59527406	      1.03133237	     22.88707960	    -22.44494005	      0.05874927	     -7.69282650	     -3.62697749	      7.88200643	    -17.18804744
      0.50000000	      0.32098686	      0.59488004	      1.02841032	     21.63703331	    -15.20986004	     -0.81290039	     -9.57492015	     -2.68060324	      8.42423285	    -17.33644454
      0.51666667	      0.61883540	      0.59448402	      1.02488668	     20.54676252	     -8.89808323	     -1.25282122	    -11.62354332	     -1.61532154	      8.91276068	    -17.56322626
